<svg xmlns:dc="http://purl.org/dc/elements/1.1/" xmlns:cc="http://creativecommons.org/ns#" xmlns:rdf="http://www.w3.org/1999/02/22-rdf-syntax-ns#" xmlns:svg="http://www.w3.org/2000/svg" xmlns="http://www.w3.org/2000/svg" xmlns:sodipodi="http://sodipodi.sourceforge.net/DTD/sodipodi-0.dtd" xmlns:inkscape="http://www.inkscape.org/namespaces/inkscape" version="1.1" x="0px" y="0px" viewBox="0 0 100 125"><g transform="translate(0,-952.36218)"><path d="m 50.35382,958.36228 c -2.3532,0 -4.81901,1.1608 -7.27052,3 -2.4515,1.8392 -4.89895,4.3764 -7.08329,7.25 -4.36867,5.7473 -7.76989,12.8524 -7.76978,18.75 -1.8e-4,4.4823 0.86939,6.9523 3.21401,9.5938 -2.38454,1.333 -5.37385,2.7857 -7.58255,4.34352 -2.06861,1.5261 -3.54278,3.5406 -5.585505,7.5937 -3.82486,7.3371 -5.4198,12.9718 -5.14866,17.4376 0.27114,4.4656 2.55887,7.6859 6.05357,9.75 1.624725,0.9593 3.503075,1.7026 5.585505,2.2812 -3.94546,0 -7.926835,0 -11.857495,0 -0.52298,0.049 -0.95432,0.5701 -0.9053,1.0938 0.049,0.5237 0.56959,0.9555 1.09252,0.9062 l 11.982315,0 0,5 c 5e-5,0.5236 0.47571,0.9999 0.99853,1 l 47.92925,0 c 0.52281,-10e-5 0.99848,-0.4764 0.99853,-1 l 0,-5 11.98231,0 c 0.52753,0.01 1.01274,-0.4716 1.01274,-1 0,-0.5284 -0.48521,-1.0075 -1.01274,-1 l -8.89313,0 c 1.87665,-0.5899 3.48118,-1.3482 4.80541,-2.3438 2.8312,-2.1279 4.20478,-5.4012 4.08772,-9.7812 -0.11707,-4.38 -1.60935,-9.951 -4.39975,-17.25 -1.54361,-4.0841 -3.00559,-6.1548 -5.14866,-7.6875 -2.81912,-1.74302 -5.66729,-3.10822 -7.80097,-4.34352 1.0019,-1.1478 1.81272,-2.2572 2.24668,-3.5313 0.57042,-1.6747 0.68639,-3.527 0.68649,-6.0625 -1.1e-4,-5.8976 -3.3846,-13.002 -7.76978,-18.75 -2.1926,-2.874 -4.64466,-5.4108 -7.11449,-7.25 -2.46985,-1.8392 -4.95381,-3 -7.33294,-3 z m -0.31203,23 c 6.73965,0 13.84741,1.5474 20.34496,3.8438 0.10943,0.7446 0.18722,1.4697 0.18723,2.1562 -1e-4,2.4645 -0.1415,4.0811 -0.59288,5.4062 -0.39319,1.1545 -1.06456,2.1546 -2.18427,3.3438 -4.80142,4.65262 -10.85539,8.25002 -17.75504,8.25002 -7.04517,0 -13.34993,-4.80702 -17.25579,-8.71882 -2.12726,-2.3091 -2.55889,-3.974 -2.55871,-8.2812 -10e-6,-0.7635 0.0833,-1.572 0.21843,-2.4062 6.76656,-2.3593 12.10391,-3.5938 19.59607,-3.5938 z m 0,1.9375 c -6.55283,0 -13.10566,0.9375 -14.97789,2.8125 0.004,3.8375 0,6.25 3.74447,11.25 2.49631,2.5 6.24078,5.00002 11.23342,5.00002 4.99262,0 8.7371,-2.50002 11.23341,-5.00002 3.74447,-5 3.74447,-7.5 3.74447,-11.25 -1.87223,-1.875 -8.42506,-2.8125 -14.97788,-2.8125 z m -22.9661,28.06252 45.93219,0 0,27 -45.93219,0 z m 17.97346,8 0,2 9.98526,0 0,-2 z m -17.97346,21 45.93219,0 0,4 -45.93219,0 z" style="text-indent:0;text-transform:none;direction:ltr;block-progression:tb;baseline-shift:baseline;color:#000000;enable-background:accumulate;" fill="#121212" fill-opacity="1" stroke="none" marker="none" visibility="visible" display="inline" overflow="visible"/></g></svg>