<?xml version="1.0" standalone="no"?>
<!DOCTYPE svg PUBLIC "-//W3C//DTD SVG 20010904//EN"
 "http://www.w3.org/TR/2001/REC-SVG-20010904/DTD/svg10.dtd">
<svg version="1.0" xmlns="http://www.w3.org/2000/svg"
 width="600.000000pt" height="600.000000pt" viewBox="0 0 600.000000 600.000000"
 preserveAspectRatio="xMidYMid meet">
<metadata>
Created by potrace 1.14, written by Peter Selinger 2001-2017
</metadata>
<g transform="translate(0.000000,600.000000) scale(0.100000,-0.100000)"
fill="#000000" stroke="none">
<path d="M1280 5786 c0 -3 51 -44 113 -90 113 -84 245 -208 296 -276 14 -19
28 -37 31 -40 23 -20 117 -220 104 -220 -3 0 0 -8 5 -17 8 -16 13 -39 27 -123
2 -14 3 -63 3 -110 0 -47 -1 -93 0 -103 0 -17 -11 -25 -41 -31 -24 -5 -102
-27 -203 -59 -55 -17 -102 -32 -105 -32 -27 -5 -50 -19 -50 -30 0 -16 17 -14
132 15 41 10 105 16 160 16 l93 -1 3 -81 2 -81 -51 -31 c-27 -18 -52 -32 -54
-32 -16 0 -126 -81 -164 -121 -33 -34 -58 -50 -88 -57 -23 -5 -54 -18 -70 -29
-32 -22 -89 -44 -96 -36 -3 2 -20 -3 -39 -13 -86 -44 -172 -183 -247 -399 -23
-66 -55 -147 -71 -180 -57 -120 -101 -253 -115 -355 -3 -25 -8 -52 -11 -61 -7
-24 -6 -227 1 -279 11 -83 47 -223 102 -400 65 -210 71 -237 79 -335 7 -88 8
-86 -93 -135 -34 -17 -75 -41 -90 -54 -57 -47 -67 -49 -146 -25 -39 12 -85 24
-102 26 -16 3 -61 10 -100 17 -63 11 -303 13 -347 4 -50 -11 -19 -18 83 -19
63 0 123 -2 134 -4 11 -2 40 -6 65 -9 59 -6 304 -62 318 -72 2 -1 -10 -26 -26
-55 -17 -30 -33 -64 -36 -76 -6 -18 -3 -20 13 -16 19 5 19 1 -10 -78 -35 -97
-30 -88 -59 -94 -100 -19 -383 -137 -411 -171 -12 -14 5 -9 121 38 59 24 305
106 309 103 2 -3 5 -30 8 -62 8 -113 81 -212 181 -247 40 -14 42 -14 42 4 0
16 19 7 108 -51 106 -71 221 -134 228 -126 2 2 0 18 -6 35 -9 32 -7 31 58 -29
161 -147 314 -242 687 -426 79 -39 207 -127 246 -170 20 -22 49 -59 64 -82 41
-66 121 -138 192 -173 54 -26 77 -32 144 -33 123 -3 220 38 369 155 14 11 34
22 45 24 44 9 245 89 329 132 133 68 357 221 469 322 60 54 188 183 218 220
39 48 231 254 329 352 168 170 262 229 405 256 11 2 31 6 45 9 14 3 49 7 79
10 30 3 57 8 60 11 3 3 -14 24 -37 46 -24 22 -40 43 -37 46 9 10 230 8 290 -2
28 -4 56 -13 63 -18 6 -6 12 -7 12 -3 0 4 34 -12 75 -34 41 -23 76 -41 78 -41
14 0 23 192 13 260 -36 230 -116 410 -241 544 -48 51 -48 51 -2 77 42 24 147
124 198 189 93 118 183 367 207 575 18 159 1 481 -33 635 -4 14 -8 34 -9 45
-7 40 -17 86 -31 147 -8 35 -16 74 -19 88 -2 14 -12 63 -22 110 -9 47 -18 94
-20 105 -1 11 -7 52 -13 90 -38 253 23 527 170 762 21 35 69 57 149 67 32 5
129 37 134 45 5 7 -73 25 -164 38 -57 8 -462 10 -497 3 -21 -5 -56 -11 -78
-13 -82 -10 -270 -58 -340 -87 -11 -4 -47 -18 -80 -31 -110 -41 -322 -155
-448 -241 -127 -87 -361 -266 -452 -347 -22 -20 -67 -58 -99 -86 -32 -27 -72
-62 -88 -77 -36 -34 -52 -35 -98 -6 -94 57 -297 160 -425 215 -107 46 -333
127 -418 150 -68 18 -69 18 -122 93 -187 265 -433 479 -690 599 -89 42 -260
101 -340 117 -11 2 -31 6 -45 9 -40 9 -210 18 -210 11z"/>
</g>
</svg>
